# Wavefront OBJ file automatically generated by Tiled2Unity

# Vertices (Count = 117)
v -1 -1 0
v -2 -1 0
v -2 0 0
v -1 0 0
v -3 -1 0
v -3 0 0
v -4 -1 0
v -4 0 0
v -5 -1 0
v -5 0 0
v -6 -1 0
v -6 0 0
v -7 -1 0
v -7 0 0
v -8 -1 0
v -8 0 0
v -9 -1 0
v -9 0 0
v -10 -1 0
v -10 0 0
v -11 -1 0
v -11 0 0
v -1 -2 0
v -2 -2 0
v -3 -2 0
v -4 -2 0
v -5 -2 0
v -6 -2 0
v -7 -2 0
v -8 -2 0
v -9 -2 0
v -10 -2 0
v -11 -2 0
v -1 -3 0
v -2 -3 0
v -3 -3 0
v -4 -3 0
v -5 -3 0
v -6 -3 0
v -7 -3 0
v -8 -3 0
v -9 -3 0
v -10 -3 0
v -11 -3 0
v -1 -4 0
v -2 -4 0
v -3 -4 0
v -4 -4 0
v -5 -4 0
v -6 -4 0
v -7 -4 0
v -8 -4 0
v -9 -4 0
v -10 -4 0
v -11 -4 0
v -1 -5 0
v -2 -5 0
v -3 -5 0
v -4 -5 0
v -5 -5 0
v -6 -5 0
v -7 -5 0
v -8 -5 0
v -9 -5 0
v -10 -5 0
v -11 -5 0
v -1 -6 0
v -2 -6 0
v -3 -6 0
v -4 -6 0
v -5 -6 0
v -6 -6 0
v -7 -6 0
v -8 -6 0
v -9 -6 0
v -10 -6 0
v -11 -6 0
v -1 -7 0
v -2 -7 0
v -3 -7 0
v -4 -7 0
v -5 -7 0
v -6 -7 0
v -7 -7 0
v -8 -7 0
v -9 -7 0
v -10 -7 0
v -11 -7 0
v -1 -8 0
v -2 -8 0
v -3 -8 0
v -4 -8 0
v -5 -8 0
v -6 -8 0
v -7 -8 0
v -8 -8 0
v -9 -8 0
v -10 -8 0
v -11 -8 0
v 0 -1 0
v 0 0 0
v -12 -1 0
v -12 0 0
v 0 -2 0
v -12 -2 0
v 0 -3 0
v -12 -3 0
v 0 -4 0
v -12 -4 0
v 0 -5 0
v -12 -5 0
v 0 -6 0
v -12 -6 0
v 0 -7 0
v -12 -7 0
v 0 -8 0
v -12 -8 0

# Texture cooridinates (Count = 89)
vt 0.0001220703 0.9376221
vt 0.06237793 0.9376221
vt 0.06237793 0.9998779
vt 0.0001220703 0.9998779
vt 0.1251221 0.9376221
vt 0.1873779 0.9376221
vt 0.1873779 0.9998779
vt 0.1251221 0.9998779
vt 0.1876221 0.9376221
vt 0.2498779 0.9376221
vt 0.2498779 0.9998779
vt 0.1876221 0.9998779
vt 0.06262207 0.8126221
vt 0.1248779 0.8126221
vt 0.1248779 0.8748779
vt 0.06262207 0.8748779
vt 0.0001220703 0.8126221
vt 0.06237793 0.8126221
vt 0.06237793 0.8748779
vt 0.0001220703 0.8748779
vt 0.3126221 0.9376221
vt 0.3748779 0.9376221
vt 0.3748779 0.9998779
vt 0.3126221 0.9998779
vt 0.1876221 0.8126221
vt 0.2498779 0.8126221
vt 0.2498779 0.8748779
vt 0.1876221 0.8748779
vt 0.3751221 0.9376221
vt 0.4373779 0.9376221
vt 0.4373779 0.9998779
vt 0.3751221 0.9998779
vt 0.1876221 0.7501221
vt 0.2498779 0.7501221
vt 0.2498779 0.8123779
vt 0.1876221 0.8123779
vt 0.3126221 0.6876221
vt 0.3748779 0.6876221
vt 0.3748779 0.7498779
vt 0.3126221 0.7498779
vt 0.3126221 0.7501221
vt 0.3748779 0.7501221
vt 0.3748779 0.8123779
vt 0.3126221 0.8123779
vt 0.0001220703 0.6251221
vt 0.06237793 0.6251221
vt 0.06237793 0.6873779
vt 0.0001220703 0.6873779
vt 0.06262207 0.6251221
vt 0.1248779 0.6251221
vt 0.1248779 0.6873779
vt 0.06262207 0.6873779
vt 0.3751221 0.8751221
vt 0.4373779 0.8751221
vt 0.4373779 0.9373779
vt 0.3751221 0.9373779
vt 0.3126221 0.8751221
vt 0.3748779 0.8751221
vt 0.3748779 0.9373779
vt 0.3126221 0.9373779
vt 0.4376221 0.6876221
vt 0.4998779 0.6876221
vt 0.4998779 0.7498779
vt 0.4376221 0.7498779
vt 0.3751221 0.7501221
vt 0.4373779 0.7501221
vt 0.4373779 0.8123779
vt 0.3751221 0.8123779
vt 0.3751221 0.6876221
vt 0.4373779 0.6876221
vt 0.4373779 0.7498779
vt 0.3751221 0.7498779
vt 0.4376221 0.9376221
vt 0.4998779 0.9376221
vt 0.4998779 0.9998779
vt 0.4376221 0.9998779
vt 0.0001220703 0.8751221
vt 0.06237793 0.8751221
vt 0.06237793 0.9373779
vt 0.0001220703 0.9373779
vt 0.06262207 0.8751221
vt 0.1248779 0.8751221
vt 0.1248779 0.9373779
vt 0.06262207 0.9373779
vt 0.1251221 0.8751221
vt 0.1873779 0.8751221
vt 0.1873779 0.9373779
vt 0.1251221 0.9373779
vt 0.0001220703 0.7501221

# Normal
vn 0 0 -1

# Groups (Count = 4)

g mesh_0001
f 1/1/1 2/2/1 3/3/1 4/4/1
f 2/1/1 5/2/1 6/3/1 3/4/1
f 5/5/1 7/6/1 8/7/1 6/8/1
f 7/1/1 9/2/1 10/3/1 8/4/1
f 9/1/1 11/2/1 12/3/1 10/4/1
f 11/1/1 13/2/1 14/3/1 12/4/1
f 13/1/1 15/2/1 16/3/1 14/4/1
f 15/5/1 17/6/1 18/7/1 16/8/1
f 17/9/1 19/10/1 20/11/1 18/12/1
f 19/1/1 21/2/1 22/3/1 20/4/1
f 23/13/1 24/14/1 2/15/1 1/16/1
f 24/13/1 25/14/1 5/15/1 2/16/1
f 25/13/1 26/14/1 7/15/1 5/16/1
f 26/13/1 27/14/1 9/15/1 7/16/1
f 27/13/1 28/14/1 11/15/1 9/16/1
f 28/13/1 29/14/1 13/15/1 11/16/1
f 29/13/1 30/14/1 15/15/1 13/16/1
f 30/13/1 31/14/1 17/15/1 15/16/1
f 31/13/1 32/14/1 19/15/1 17/16/1
f 32/13/1 33/14/1 21/15/1 19/16/1
f 34/13/1 35/14/1 24/15/1 23/16/1
f 35/13/1 36/14/1 25/15/1 24/16/1
f 36/13/1 37/14/1 26/15/1 25/16/1
f 37/13/1 38/14/1 27/15/1 26/16/1
f 38/13/1 39/14/1 28/15/1 27/16/1
f 39/13/1 40/14/1 29/15/1 28/16/1
f 40/13/1 41/14/1 30/15/1 29/16/1
f 41/13/1 42/14/1 31/15/1 30/16/1
f 42/17/1 43/18/1 32/19/1 31/20/1
f 43/13/1 44/14/1 33/15/1 32/16/1
f 45/13/1 46/14/1 35/15/1 34/16/1
f 46/13/1 47/14/1 36/15/1 35/16/1
f 47/13/1 48/14/1 37/15/1 36/16/1
f 48/13/1 49/14/1 38/15/1 37/16/1
f 49/13/1 50/14/1 39/15/1 38/16/1
f 50/13/1 51/14/1 40/15/1 39/16/1
f 51/13/1 52/14/1 41/15/1 40/16/1
f 52/13/1 53/14/1 42/15/1 41/16/1
f 53/17/1 54/18/1 43/19/1 42/20/1
f 54/13/1 55/14/1 44/15/1 43/16/1
f 56/13/1 57/14/1 46/15/1 45/16/1
f 57/17/1 58/18/1 47/19/1 46/20/1
f 58/17/1 59/18/1 48/19/1 47/20/1
f 59/17/1 60/18/1 49/19/1 48/20/1
f 60/17/1 61/18/1 50/19/1 49/20/1
f 61/17/1 62/18/1 51/19/1 50/20/1
f 62/13/1 63/14/1 52/15/1 51/16/1
f 63/13/1 64/14/1 53/15/1 52/16/1
f 64/17/1 65/18/1 54/19/1 53/20/1
f 65/13/1 66/14/1 55/15/1 54/16/1
f 67/13/1 68/14/1 57/15/1 56/16/1
f 68/17/1 69/18/1 58/19/1 57/20/1
f 69/17/1 70/18/1 59/19/1 58/20/1
f 70/17/1 71/18/1 60/19/1 59/20/1
f 71/17/1 72/18/1 61/19/1 60/20/1
f 72/17/1 73/18/1 62/19/1 61/20/1
f 73/13/1 74/14/1 63/15/1 62/16/1
f 74/13/1 75/14/1 64/15/1 63/16/1
f 75/17/1 76/18/1 65/19/1 64/20/1
f 76/13/1 77/14/1 66/15/1 65/16/1
f 78/13/1 79/14/1 68/15/1 67/16/1
f 79/13/1 80/14/1 69/15/1 68/16/1
f 80/13/1 81/14/1 70/15/1 69/16/1
f 81/13/1 82/14/1 71/15/1 70/16/1
f 82/13/1 83/14/1 72/15/1 71/16/1
f 83/13/1 84/14/1 73/15/1 72/16/1
f 84/13/1 85/14/1 74/15/1 73/16/1
f 85/13/1 86/14/1 75/15/1 74/16/1
f 86/13/1 87/14/1 76/15/1 75/16/1
f 87/13/1 88/14/1 77/15/1 76/16/1
f 89/13/1 90/14/1 79/15/1 78/16/1
f 90/13/1 91/14/1 80/15/1 79/16/1
f 91/13/1 92/14/1 81/15/1 80/16/1
f 92/13/1 93/14/1 82/15/1 81/16/1
f 93/13/1 94/14/1 83/15/1 82/16/1
f 94/13/1 95/14/1 84/15/1 83/16/1
f 95/13/1 96/14/1 85/15/1 84/16/1
f 96/13/1 97/14/1 86/15/1 85/16/1
f 97/13/1 98/14/1 87/15/1 86/16/1
f 98/13/1 99/14/1 88/15/1 87/16/1

g mesh_0002
f 100/21/1 1/22/1 4/23/1 101/24/1
f 1/25/1 2/26/1 3/27/1 4/28/1
f 2/25/1 5/26/1 6/27/1 3/28/1
f 7/25/1 9/26/1 10/27/1 8/28/1
f 9/25/1 11/26/1 12/27/1 10/28/1
f 11/25/1 13/26/1 14/27/1 12/28/1
f 13/25/1 15/26/1 16/27/1 14/28/1
f 15/29/1 17/30/1 18/31/1 16/32/1
f 21/29/1 102/30/1 103/31/1 22/32/1
f 104/21/1 23/22/1 1/23/1 100/24/1
f 23/33/1 24/34/1 2/35/1 1/36/1
f 24/33/1 25/34/1 5/35/1 2/36/1
f 26/33/1 27/34/1 9/35/1 7/36/1
f 27/33/1 28/34/1 11/35/1 9/36/1
f 28/33/1 29/34/1 13/35/1 11/36/1
f 29/33/1 30/34/1 15/35/1 13/36/1
f 30/29/1 31/30/1 17/31/1 15/32/1
f 31/37/1 32/38/1 19/39/1 17/40/1
f 32/41/1 33/42/1 21/43/1 19/44/1
f 33/29/1 105/30/1 102/31/1 21/32/1
f 106/21/1 34/22/1 23/23/1 104/24/1
f 34/45/1 35/46/1 24/47/1 23/48/1
f 35/45/1 36/46/1 25/47/1 24/48/1
f 36/45/1 37/46/1 26/47/1 25/48/1
f 37/45/1 38/46/1 27/47/1 26/48/1
f 38/49/1 39/50/1 28/51/1 27/52/1
f 39/45/1 40/46/1 29/47/1 28/48/1
f 40/45/1 41/46/1 30/47/1 29/48/1
f 41/29/1 42/30/1 31/31/1 30/32/1
f 44/29/1 107/30/1 105/31/1 33/32/1
f 108/21/1 45/22/1 34/23/1 106/24/1
f 52/53/1 53/54/1 42/55/1 41/56/1
f 53/41/1 54/42/1 43/43/1 42/44/1
f 54/37/1 55/38/1 44/39/1 43/40/1
f 55/29/1 109/30/1 107/31/1 44/32/1
f 110/21/1 56/22/1 45/23/1 108/24/1
f 56/37/1 57/38/1 46/39/1 45/40/1
f 57/41/1 58/42/1 47/43/1 46/44/1
f 58/37/1 59/38/1 48/39/1 47/40/1
f 66/29/1 111/30/1 109/31/1 55/32/1
f 112/21/1 67/22/1 56/23/1 110/24/1
f 71/37/1 72/38/1 61/39/1 60/40/1
f 72/41/1 73/42/1 62/43/1 61/44/1
f 73/37/1 74/38/1 63/39/1 62/40/1
f 75/37/1 76/38/1 65/39/1 64/40/1
f 76/41/1 77/42/1 66/43/1 65/44/1
f 77/29/1 113/30/1 111/31/1 66/32/1
f 114/21/1 78/22/1 67/23/1 112/24/1
f 78/37/1 79/38/1 68/39/1 67/40/1
f 79/41/1 80/42/1 69/43/1 68/44/1
f 80/37/1 81/38/1 70/39/1 69/40/1
f 88/29/1 115/30/1 113/31/1 77/32/1
f 116/57/1 89/58/1 78/59/1 114/60/1
f 99/53/1 117/54/1 115/55/1 88/56/1

g mesh_0003
f 21/29/1 102/30/1 103/31/1 22/32/1
f 32/61/1 33/62/1 21/63/1 19/64/1
f 33/29/1 105/30/1 102/31/1 21/32/1
f 106/21/1 34/22/1 23/23/1 104/24/1
f 35/65/1 36/66/1 25/67/1 24/68/1
f 40/61/1 41/62/1 30/63/1 29/64/1
f 44/29/1 107/30/1 105/31/1 33/32/1
f 108/21/1 45/22/1 34/23/1 106/24/1
f 53/69/1 54/70/1 43/71/1 42/72/1
f 55/29/1 109/30/1 107/31/1 44/32/1
f 110/21/1 56/22/1 45/23/1 108/24/1
f 57/69/1 58/70/1 47/71/1 46/72/1
f 66/29/1 111/30/1 109/31/1 55/32/1
f 112/21/1 67/22/1 56/23/1 110/24/1
f 72/65/1 73/66/1 62/67/1 61/68/1
f 77/29/1 113/30/1 111/31/1 66/32/1
f 114/21/1 78/22/1 67/23/1 112/24/1
f 78/73/1 79/74/1 68/75/1 67/76/1
f 79/73/1 80/74/1 69/75/1 68/76/1
f 80/73/1 81/74/1 70/75/1 69/76/1
f 81/73/1 82/74/1 71/75/1 70/76/1
f 82/73/1 83/74/1 72/75/1 71/76/1
f 83/73/1 84/74/1 73/75/1 72/76/1
f 84/73/1 85/74/1 74/75/1 73/76/1
f 85/73/1 86/74/1 75/75/1 74/76/1
f 86/73/1 87/74/1 76/75/1 75/76/1
f 87/73/1 88/74/1 77/75/1 76/76/1
f 88/29/1 115/30/1 113/31/1 77/32/1
f 116/57/1 89/58/1 78/59/1 114/60/1
f 89/77/1 90/78/1 79/79/1 78/80/1
f 90/77/1 91/78/1 80/79/1 79/80/1
f 91/81/1 92/82/1 81/83/1 80/84/1
f 92/77/1 93/78/1 82/79/1 81/80/1
f 93/85/1 94/86/1 83/87/1 82/88/1
f 94/77/1 95/78/1 84/79/1 83/80/1
f 95/77/1 96/78/1 85/79/1 84/80/1
f 96/81/1 97/82/1 86/83/1 85/84/1
f 97/77/1 98/78/1 87/79/1 86/80/1
f 98/77/1 99/78/1 88/79/1 87/80/1
f 99/53/1 117/54/1 115/55/1 88/56/1

g mesh_tile_0257
f 100/89/1 1/34/1 4/11/1 101/4/1

