# Wavefront OBJ file automatically generated by Tiled2Unity

# Vertices (Count = 70)
v -1 -1 0
v -2 -1 0
v -2 0 0
v -1 0 0
v -3 -1 0
v -3 0 0
v -4 -1 0
v -4 0 0
v -5 -1 0
v -5 0 0
v -6 -1 0
v -6 0 0
v -7 -1 0
v -7 0 0
v -8 -1 0
v -8 0 0
v -1 -2 0
v -2 -2 0
v -3 -2 0
v -4 -2 0
v -5 -2 0
v -6 -2 0
v -7 -2 0
v -8 -2 0
v -1 -3 0
v -2 -3 0
v -3 -3 0
v -4 -3 0
v -5 -3 0
v -6 -3 0
v -7 -3 0
v -8 -3 0
v -1 -4 0
v -2 -4 0
v -3 -4 0
v -4 -4 0
v -5 -4 0
v -6 -4 0
v -7 -4 0
v -8 -4 0
v -1 -5 0
v -2 -5 0
v -3 -5 0
v -4 -5 0
v -5 -5 0
v -6 -5 0
v -7 -5 0
v -8 -5 0
v -1 -6 0
v -2 -6 0
v -3 -6 0
v -4 -6 0
v -5 -6 0
v -6 -6 0
v -7 -6 0
v -8 -6 0
v 0 -1 0
v 0 0 0
v -9 -1 0
v -9 0 0
v 0 -2 0
v -9 -2 0
v 0 -3 0
v -9 -3 0
v 0 -4 0
v -9 -4 0
v 0 -5 0
v -9 -5 0
v 0 -6 0
v -9 -6 0

# Texture cooridinates (Count = 110)
vt 0.0001220703 0.9376221
vt 0.06237793 0.9376221
vt 0.06237793 0.9998779
vt 0.0001220703 0.9998779
vt 0.1251221 0.9376221
vt 0.1873779 0.9376221
vt 0.1873779 0.9998779
vt 0.1251221 0.9998779
vt 0.0001220703 0.7501221
vt 0.06237793 0.7501221
vt 0.06237793 0.8123779
vt 0.0001220703 0.8123779
vt 0.06262207 0.8126221
vt 0.1248779 0.8126221
vt 0.1248779 0.8748779
vt 0.06262207 0.8748779
vt 0.06262207 0.7501221
vt 0.1248779 0.7501221
vt 0.1248779 0.8123779
vt 0.06262207 0.8123779
vt 0.3126221 0.9376221
vt 0.3748779 0.9376221
vt 0.3748779 0.9998779
vt 0.3126221 0.9998779
vt 0.1251221 0.8126221
vt 0.1873779 0.8126221
vt 0.1873779 0.8748779
vt 0.1251221 0.8748779
vt 0.3751221 0.9376221
vt 0.4373779 0.9376221
vt 0.4373779 0.9998779
vt 0.3751221 0.9998779
vt 0.0001220703 0.3751221
vt 0.06237793 0.3751221
vt 0.06237793 0.4373779
vt 0.0001220703 0.4373779
vt 0.1251221 0.7501221
vt 0.1873779 0.7501221
vt 0.1873779 0.8123779
vt 0.1251221 0.8123779
vt 0.0001220703 0.6251221
vt 0.06237793 0.6251221
vt 0.06237793 0.6873779
vt 0.0001220703 0.6873779
vt 0.2501221 0.6876221
vt 0.3123779 0.6876221
vt 0.3123779 0.7498779
vt 0.2501221 0.7498779
vt 0.3126221 0.7501221
vt 0.3748779 0.7501221
vt 0.3748779 0.8123779
vt 0.3126221 0.8123779
vt 0.3126221 0.8751221
vt 0.3748779 0.8751221
vt 0.3748779 0.9373779
vt 0.3126221 0.9373779
vt 0.3751221 0.8751221
vt 0.4373779 0.8751221
vt 0.4373779 0.9373779
vt 0.3751221 0.9373779
vt 0.1251221 0.5626221
vt 0.1873779 0.5626221
vt 0.1873779 0.6248779
vt 0.1251221 0.6248779
vt 0.06262207 0.5626221
vt 0.1248779 0.5626221
vt 0.1248779 0.6248779
vt 0.06262207 0.6248779
vt 0.1876221 0.5626221
vt 0.2498779 0.5626221
vt 0.2498779 0.6248779
vt 0.1876221 0.6248779
vt 0.1251221 0.5001221
vt 0.1873779 0.5001221
vt 0.1873779 0.5623779
vt 0.1251221 0.5623779
vt 0.06262207 0.5001221
vt 0.1248779 0.5001221
vt 0.1248779 0.5623779
vt 0.06262207 0.5623779
vt 0.1876221 0.5001221
vt 0.2498779 0.5001221
vt 0.2498779 0.5623779
vt 0.1876221 0.5623779
vt 0.5001221 0.7501221
vt 0.5623779 0.7501221
vt 0.5623779 0.8123779
vt 0.5001221 0.8123779
vt 0.3751221 0.7501221
vt 0.4373779 0.7501221
vt 0.4373779 0.8123779
vt 0.3751221 0.8123779
vt 0.4376221 0.9376221
vt 0.4998779 0.9376221
vt 0.4998779 0.9998779
vt 0.4376221 0.9998779
vt 0.0001220703 0.8751221
vt 0.06237793 0.8751221
vt 0.06237793 0.9373779
vt 0.0001220703 0.9373779
vt 0.06262207 0.8751221
vt 0.1248779 0.8751221
vt 0.1248779 0.9373779
vt 0.06262207 0.9373779
vt 0.1251221 0.8751221
vt 0.1873779 0.8751221
vt 0.1873779 0.9373779
vt 0.1251221 0.9373779
vt 0.2498779 0.7501221
vt 0.2498779 0.9998779

# Normal
vn 0 0 -1

# Groups (Count = 4)

g mesh_0001
f 1/1/1 2/2/1 3/3/1 4/4/1
f 2/1/1 5/2/1 6/3/1 3/4/1
f 5/5/1 7/6/1 8/7/1 6/8/1
f 7/1/1 9/2/1 10/3/1 8/4/1
f 9/1/1 11/2/1 12/3/1 10/4/1
f 11/1/1 13/2/1 14/3/1 12/4/1
f 13/1/1 15/2/1 16/3/1 14/4/1
f 17/9/1 18/10/1 2/11/1 1/12/1
f 18/9/1 19/10/1 5/11/1 2/12/1
f 19/9/1 20/10/1 7/11/1 5/12/1
f 20/9/1 21/10/1 9/11/1 7/12/1
f 21/9/1 22/10/1 11/11/1 9/12/1
f 22/9/1 23/10/1 13/11/1 11/12/1
f 23/9/1 24/10/1 15/11/1 13/12/1
f 25/13/1 26/14/1 18/15/1 17/16/1
f 26/13/1 27/14/1 19/15/1 18/16/1
f 27/13/1 28/14/1 20/15/1 19/16/1
f 28/13/1 29/14/1 21/15/1 20/16/1
f 29/13/1 30/14/1 22/15/1 21/16/1
f 30/9/1 31/10/1 23/11/1 22/12/1
f 31/13/1 32/14/1 24/15/1 23/16/1
f 33/17/1 34/18/1 26/19/1 25/20/1
f 34/17/1 35/18/1 27/19/1 26/20/1
f 35/17/1 36/18/1 28/19/1 27/20/1
f 36/17/1 37/18/1 29/19/1 28/20/1
f 37/17/1 38/18/1 30/19/1 29/20/1
f 38/17/1 39/18/1 31/19/1 30/20/1
f 39/17/1 40/18/1 32/19/1 31/20/1
f 41/17/1 42/18/1 34/19/1 33/20/1
f 42/17/1 43/18/1 35/19/1 34/20/1
f 43/17/1 44/18/1 36/19/1 35/20/1
f 44/17/1 45/18/1 37/19/1 36/20/1
f 45/17/1 46/18/1 38/19/1 37/20/1
f 46/17/1 47/18/1 39/19/1 38/20/1
f 47/17/1 48/18/1 40/19/1 39/20/1
f 49/17/1 50/18/1 42/19/1 41/20/1
f 50/17/1 51/18/1 43/19/1 42/20/1
f 51/17/1 52/18/1 44/19/1 43/20/1
f 52/17/1 53/18/1 45/19/1 44/20/1
f 53/17/1 54/18/1 46/19/1 45/20/1
f 54/17/1 55/18/1 47/19/1 46/20/1
f 55/17/1 56/18/1 48/19/1 47/20/1

g mesh_0002
f 57/21/1 1/22/1 4/23/1 58/24/1
f 13/25/1 15/26/1 16/27/1 14/28/1
f 15/29/1 59/30/1 60/31/1 16/32/1
f 61/21/1 17/22/1 1/23/1 57/24/1
f 17/33/1 18/34/1 2/35/1 1/36/1
f 23/37/1 24/38/1 15/39/1 13/40/1
f 24/29/1 62/30/1 59/31/1 15/32/1
f 63/21/1 25/22/1 17/23/1 61/24/1
f 25/41/1 26/42/1 18/43/1 17/44/1
f 26/41/1 27/42/1 19/43/1 18/44/1
f 27/41/1 28/42/1 20/43/1 19/44/1
f 28/41/1 29/42/1 21/43/1 20/44/1
f 29/41/1 30/42/1 22/43/1 21/44/1
f 31/41/1 32/42/1 24/43/1 23/44/1
f 32/29/1 64/30/1 62/31/1 24/32/1
f 65/21/1 33/22/1 25/23/1 63/24/1
f 33/45/1 34/46/1 26/47/1 25/48/1
f 35/49/1 36/50/1 28/51/1 27/52/1
f 39/45/1 40/46/1 32/47/1 31/48/1
f 40/29/1 66/30/1 64/31/1 32/32/1
f 67/21/1 41/22/1 33/23/1 65/24/1
f 48/29/1 68/30/1 66/31/1 40/32/1
f 69/53/1 49/54/1 41/55/1 67/56/1
f 56/57/1 70/58/1 68/59/1 48/60/1

g mesh_0003
f 57/21/1 1/22/1 4/23/1 58/24/1
f 5/1/1 7/2/1 8/3/1 6/4/1
f 61/21/1 17/22/1 1/23/1 57/24/1
f 17/61/1 18/62/1 2/63/1 1/64/1
f 18/61/1 19/62/1 5/63/1 2/64/1
f 19/61/1 20/62/1 7/63/1 5/64/1
f 20/65/1 21/66/1 9/67/1 7/68/1
f 21/61/1 22/62/1 11/63/1 9/64/1
f 22/69/1 23/70/1 13/71/1 11/72/1
f 23/61/1 24/62/1 15/63/1 13/64/1
f 63/21/1 25/22/1 17/23/1 61/24/1
f 25/73/1 26/74/1 18/75/1 17/76/1
f 26/73/1 27/74/1 19/75/1 18/76/1
f 27/73/1 28/74/1 20/75/1 19/76/1
f 28/77/1 29/78/1 21/79/1 20/80/1
f 29/73/1 30/74/1 22/75/1 21/76/1
f 30/81/1 31/82/1 23/83/1 22/84/1
f 31/73/1 32/74/1 24/75/1 23/76/1
f 65/21/1 33/22/1 25/23/1 63/24/1
f 33/85/1 34/86/1 26/87/1 25/88/1
f 35/89/1 36/90/1 28/91/1 27/92/1
f 39/85/1 40/86/1 32/87/1 31/88/1
f 67/21/1 41/22/1 33/23/1 65/24/1
f 41/93/1 42/94/1 34/95/1 33/96/1
f 42/93/1 43/94/1 35/95/1 34/96/1
f 43/93/1 44/94/1 36/95/1 35/96/1
f 44/93/1 45/94/1 37/95/1 36/96/1
f 45/93/1 46/94/1 38/95/1 37/96/1
f 46/93/1 47/94/1 39/95/1 38/96/1
f 47/93/1 48/94/1 40/95/1 39/96/1
f 69/53/1 49/54/1 41/55/1 67/56/1
f 49/97/1 50/98/1 42/99/1 41/100/1
f 50/101/1 51/102/1 43/103/1 42/104/1
f 51/97/1 52/98/1 44/99/1 43/100/1
f 52/105/1 53/106/1 45/107/1 44/108/1
f 53/97/1 54/98/1 46/99/1 45/100/1
f 54/101/1 55/102/1 47/103/1 46/104/1
f 55/97/1 56/98/1 48/99/1 47/100/1

g mesh_tile_0257
f 57/9/1 1/109/1 4/110/1 58/4/1

